<svg id="Ebene_1" data-name="Ebene 1" xmlns="http://www.w3.org/2000/svg" viewBox="0 0 724.37 138.57"><defs><style>.cls-1{fill:#fff;}.cls-2{fill:#004e8d;}.cls-3{fill:#ae4c4a;}</style></defs><polygon class="cls-1" points="147.44 36.56 142.29 36.54 142.29 26.41 147.44 26.42 147.44 36.56"/><path class="cls-1" d="M202.75,52.2l0-5.55H192.6V41.54h-10v-5H167.51v5h-5.08v5.06h-5.05v5H142.47v-5h-5.21V56.61H132.2l0,9.95h-4.88l0,15.27H147.4V86.9h5v5l10.26,0v-5l4.95,0V81.85h4.86v5.07h5l0,5h5.15v5h10.35V52.27Zm-75.64,4.42"/><path class="cls-2" d="M24.66,117a15.29,15.29,0,0,1-4.59.64c-9.38,0-14.53-7.12-14.53-16.5s5.15-16.45,14.53-16.45,14.52,7.08,14.52,16.45-5,13-5.43,13.42a15.77,15.77,0,0,0,4.05,4.6l-4.32,2.94A14.51,14.51,0,0,1,24.66,117Zm-2.39-4.65a15.58,15.58,0,0,0-3.86-4.22l4.18-2.85a12.45,12.45,0,0,1,3.63,4.32s2.21-2.58,2.21-8.46c0-6.06-2.39-11.49-8.36-11.49s-8.37,5.43-8.37,11.49,2.39,11.49,8.37,11.49A6.74,6.74,0,0,0,22.27,112.35Z"/><path class="cls-2" d="M40.75,101.05c0-9.93,5.79-16.36,14.62-16.36S67,90.85,67.22,91.31l-5,2.85a6.94,6.94,0,0,0-6.89-4.51c-4.78,0-8.46,3.5-8.46,11.49s3.5,11.49,8.46,11.49,6.71-2.48,6.71-2.48v-6.62H54.82v-5H68v13.69s-3.68,5.47-12.87,5.47S40.75,111,40.75,101.05Z"/><path class="cls-2" d="M77.53,85.34h6V117h-6Z"/><path class="cls-2" d="M90.86,109l5-2.58c1.84,4.6,5.15,6.34,8.09,6.34s5.15-1.56,5.15-4.23-1.93-3.76-4.6-4.59l-3.77-1.19c-4.32-1.38-8.64-3.77-8.64-9.2s4.51-8.82,10.76-8.82,10.2,3.86,11.39,6.62l-4.32,2.94a8.05,8.05,0,0,0-7-4.69c-2.94,0-4.78,1.29-4.78,3.59s2.11,3.21,4.5,3.95l3.77,1.19c3.49,1.11,8.82,3.5,8.82,9.56s-4.68,9.79-11.39,9.79A13.6,13.6,0,0,1,90.86,109Z"/><path class="cls-2" d="M237.52,117l.55-44.73h-.36l-11,44.73h-10.4L205.77,72.23h-.28L206,117H192.61V51.79H211.2l10.49,42h.37l10.21-42H252V117Z"/><path class="cls-2" d="M286,118.8c-15.46,0-25-13.81-25-34.52s9.39-34.14,25-34.14c15.46,0,25,13.53,25,34.14S301.47,118.8,286,118.8Zm0-54.4c-6.72,0-9.94,8.56-9.94,19.88s3.22,20.07,9.94,20.07S296,95.61,296,84.28,292.64,64.4,286,64.4Z"/><path class="cls-2" d="M338.3,117.05H320V51.88H338.3c18.69,0,27.06,12.71,27.06,32.77C365.36,104.35,356.89,117.05,338.3,117.05Zm.19-52.28H334.9v39.4h3.59c7.08,0,12.05-6.91,12.05-19.52C350.54,71.58,345.57,64.77,338.49,64.77Z"/><path class="cls-2" d="M374.3,117.05V51.88h31.48v13h-17.4v12.8h16V89.81h-16v14.08h18.5v13.16Z"/><path class="cls-2" d="M415.54,117.05V51.88h14.92v51.55h17.39v13.62Z"/><path class="cls-2" d="M494.53,117.05H472.9V51.88h19.51c8.1,0,19.24,2.67,19.24,16.76,0,7.64-3.59,12.15-8.11,14.26v.19c5,1.29,10.31,6.26,10.31,15.37C513.85,112.36,503.82,117.05,494.53,117.05Zm-2.95-52.92h-5V78.21h5.06c3.59,0,7-2,7-7.18S495.35,64.13,491.58,64.13ZM492,89h-5.34v15.83h5.52c4.33,0,7.73-2.58,7.73-7.73C499.86,91.28,495.72,89,492,89Z"/><path class="cls-2" d="M551.88,117.05l-2.67-11.87H534.57l-2.67,11.87H517.18L533,51.88h18.5l15.74,65.17Zm-9.76-51h-.37l-5.52,27.7h11.14Z"/><path class="cls-2" d="M602,117.05l-13.9-30.28h-.28v30.28H573V51.88h14.82V79h.28L601.5,51.88H618L601.22,81.71,619,117.05Z"/><path class="cls-2" d="M625.26,117.05V51.88h31.47v13H639.34v12.8h16V89.81h-16v14.08h18.5v13.16Z"/><path class="cls-2" d="M693.74,117.05,685,91.1h-4.33v26H666.5V51.88h20.89c12.61,0,20,6.63,20,19.61,0,9.67-5,15-9.2,16.48l11.13,29.08Zm-8.47-52.83h-4.6V80.7H685c4.14,0,7.82-2.49,7.82-8.38C692.82,65.69,688.68,64.22,685.27,64.22Z"/><rect class="cls-3" x="197.68" y="91.88" width="5.02" height="4.99"/><polygon class="cls-3" points="197.65 111.92 197.65 96.89 192.67 96.89 192.67 101.86 182.58 101.86 182.58 96.9 177.55 96.9 177.55 91.88 172.51 91.88 172.51 86.84 167.54 86.84 167.54 91.86 162.5 91.86 162.5 96.87 152.43 96.87 152.43 91.86 147.4 91.86 147.4 86.83 137.4 86.83 137.4 96.84 142.4 96.84 142.4 111.93 147.44 111.93 147.44 116.97 192.61 116.97 192.61 111.92 197.65 111.92"/><path class="cls-2" d="M162.49,26.46v-5h-5v-5H142.36v5h-5.05v5h-5V41.55h5.05v5h5v5h15.09v-5h5v-5h5.06V26.46ZM147.4,36.54h-5V26.46l5,0Z"/><rect class="cls-2" x="167.52" y="31.54" width="15.09" height="5.06"/><rect class="cls-2" x="182.58" y="36.54" width="10.11" height="5.06"/><rect class="cls-2" x="192.61" y="41.57" width="10.11" height="5.06"/><rect class="cls-2" x="202.68" y="46.61" width="5.06" height="5.21"/><rect class="cls-2" x="127.29" y="56.62" width="5.06" height="10.1"/><rect class="cls-2" x="132.33" y="46.52" width="5.06" height="10.1"/><rect class="cls-2" x="122.27" y="66.7" width="5.06" height="15.1"/><rect class="cls-2" x="127.3" y="81.74" width="20.2" height="5.06"/><rect class="cls-2" x="147.4" y="86.78" width="5.06" height="5.06"/><rect class="cls-2" x="132.34" y="86.8" width="5.06" height="10.04"/><rect class="cls-2" x="137.33" y="96.82" width="5.06" height="15.14"/><rect class="cls-2" x="142.38" y="111.91" width="5.06" height="5.06"/><rect class="cls-2" x="147.4" y="116.95" width="45.25" height="5.06"/><rect class="cls-2" x="182.58" y="96.89" width="10.09" height="4.95"/><rect class="cls-2" x="177.55" y="91.82" width="5.06" height="5.06"/><rect class="cls-2" x="172.51" y="86.79" width="5.06" height="5.06"/><rect class="cls-2" x="167.5" y="81.75" width="5.06" height="5.06"/><rect class="cls-2" x="162.48" y="86.78" width="5.06" height="5.06"/><rect class="cls-2" x="152.43" y="91.79" width="10.07" height="5.06"/></svg>
