<svg id="Ebene_1" data-name="Ebene 1" xmlns="http://www.w3.org/2000/svg" viewBox="0 0 724.37 138.57"><defs><style>.cls-1{fill:#fff;}.cls-2{fill:#004e8d;}.cls-3{fill:#ae4c4a;}</style></defs><polygon class="cls-1" points="147.44 36.45 142.29 36.44 142.29 26.3 147.44 26.32 147.44 36.45"/><path class="cls-1" d="M202.75,52.09l0-5.55H192.6V41.43h-10v-5H167.51v5h-5.08v5.06h-5.05v5H142.47v-5h-5.21V56.51H132.2l0,9.95h-4.88l0,15.27H147.4V86.8h5v5l10.26,0v-5l4.95,0v-5h4.86v5.06h5l0,5h5.15v5h10.35V52.17Zm-75.64,4.43"/><path class="cls-2" d="M237.52,116.86l.55-44.74h-.36l-11,44.74h-10.4L205.77,72.12h-.28l.46,44.74H192.61V51.69H211.2l10.49,42h.37l10.21-42H252v65.17Z"/><path class="cls-2" d="M286,118.7c-15.46,0-25-13.81-25-34.52S270.37,50,286,50c15.46,0,25,13.53,25,34.15S301.47,118.7,286,118.7Zm0-54.4c-6.72,0-9.94,8.56-9.94,19.88s3.22,20.07,9.94,20.07S296,95.5,296,84.18,292.64,64.3,286,64.3Z"/><path class="cls-2" d="M338.3,117H320V51.78H338.3c18.69,0,27.06,12.7,27.06,32.77C365.36,104.25,356.89,117,338.3,117Zm.19-52.28H334.9v39.39h3.59c7.08,0,12.05-6.9,12.05-19.51C350.54,71.48,345.57,64.67,338.49,64.67Z"/><path class="cls-2" d="M374.3,117V51.78h31.48v13h-17.4V77.55h16V89.7h-16v14.09h18.5V117Z"/><path class="cls-2" d="M415.54,117V51.78h14.92v51.55h17.39V117Z"/><path class="cls-2" d="M494.53,117H472.9V51.78h19.51c8.1,0,19.24,2.67,19.24,16.75,0,7.64-3.59,12.15-8.11,14.27V83c5,1.29,10.31,6.26,10.31,15.38C513.85,112.25,503.82,117,494.53,117ZM491.58,64h-5V78.11h5.06c3.59,0,7-2,7-7.18S495.35,64,491.58,64ZM492,88.88h-5.34v15.83h5.52c4.33,0,7.73-2.58,7.73-7.73C499.86,91.18,495.72,88.88,492,88.88Z"/><path class="cls-2" d="M551.88,117l-2.67-11.87H534.57L531.9,117H517.18L533,51.78h18.5L567.25,117Zm-9.76-51h-.37l-5.52,27.7h11.14Z"/><path class="cls-2" d="M602,117l-13.9-30.28h-.28V117H573V51.78h14.82V78.93h.28L601.5,51.78H618L601.22,81.6,619,117Z"/><path class="cls-2" d="M625.26,117V51.78h31.47v13H639.34V77.55h16V89.7h-16v14.09h18.5V117Z"/><path class="cls-2" d="M693.74,117,685,91h-4.33v26H666.5V51.78h20.89c12.61,0,20,6.63,20,19.61,0,9.66-5,15-9.2,16.47L709.29,117Zm-8.47-52.83h-4.6V80.59H685c4.14,0,7.82-2.48,7.82-8.37C692.82,65.59,688.68,64.12,685.27,64.12Z"/><rect class="cls-3" x="197.68" y="91.77" width="5.02" height="4.99"/><polygon class="cls-3" points="197.65 111.82 197.65 96.78 192.67 96.78 192.67 101.76 182.58 101.76 182.58 96.8 177.55 96.8 177.55 91.78 172.51 91.78 172.51 86.73 167.54 86.73 167.54 91.76 162.5 91.76 162.5 96.77 152.43 96.77 152.43 91.76 147.4 91.76 147.4 86.72 137.4 86.72 137.4 96.73 142.4 96.73 142.4 111.82 147.44 111.82 147.44 116.87 192.61 116.87 192.61 111.82 197.65 111.82"/><path class="cls-2" d="M162.49,26.35v-5h-5v-5H142.36v5h-5.05v5h-5V41.44h5.05v5h5v5h15.09v-5h5v-5h5.06V26.35ZM147.4,36.44l-5,0V26.36h5Z"/><rect class="cls-2" x="167.52" y="31.43" width="15.09" height="5.06"/><rect class="cls-2" x="182.58" y="36.43" width="10.11" height="5.06"/><rect class="cls-2" x="192.61" y="41.46" width="10.11" height="5.06"/><rect class="cls-2" x="202.68" y="46.5" width="5.06" height="5.21"/><rect class="cls-2" x="127.29" y="56.52" width="5.06" height="10.1"/><rect class="cls-2" x="132.33" y="46.41" width="5.06" height="10.1"/><rect class="cls-2" x="122.27" y="66.59" width="5.06" height="15.1"/><rect class="cls-2" x="127.3" y="81.64" width="20.2" height="5.06"/><rect class="cls-2" x="147.4" y="86.67" width="5.06" height="5.06"/><rect class="cls-2" x="132.34" y="86.7" width="5.06" height="10.04"/><rect class="cls-2" x="137.33" y="96.71" width="5.06" height="15.14"/><rect class="cls-2" x="142.38" y="111.8" width="5.06" height="5.06"/><rect class="cls-2" x="147.4" y="116.85" width="45.25" height="5.06"/><rect class="cls-2" x="182.58" y="96.78" width="10.09" height="4.95"/><rect class="cls-2" x="177.55" y="91.71" width="5.06" height="5.06"/><rect class="cls-2" x="172.51" y="86.69" width="5.06" height="5.06"/><rect class="cls-2" x="167.5" y="81.65" width="5.06" height="5.06"/><rect class="cls-2" x="162.48" y="86.67" width="5.06" height="5.06"/><rect class="cls-2" x="152.43" y="91.68" width="10.07" height="5.06"/></svg>
