<svg id="Ebene_1" data-name="Ebene 1" xmlns="http://www.w3.org/2000/svg" viewBox="0 0 664.9 406.25"><defs><style>.cls-1{fill:#1b4761;}.cls-2{fill:#73a44d;}</style></defs><path class="cls-1" d="M234.63,337.13H199.57V231.49H231.2c13.13,0,31.19,4.32,31.19,27.15,0,12.39-5.82,19.7-13.14,23.13v.3C257.31,284.16,266,292.22,266,307,266,329.52,249.7,337.13,234.63,337.13Zm-4.77-85.8H221.8v22.83H230c5.82,0,11.34-3.28,11.34-11.64C241.35,254.32,236,251.33,229.86,251.33Zm.59,40.29H221.8v25.66h8.95c7,0,12.54-4.17,12.54-12.53C243.29,295.35,236.57,291.62,230.45,291.62Z"/><path class="cls-1" d="M334.3,337.13,330,317.88H306.25l-4.33,19.25H278.05l25.66-105.64h30l25.52,105.64Zm-15.82-82.66h-.59l-9,44.91H327Z"/><path class="cls-1" d="M422.18,337.13,399.65,288h-.45v49.09h-24V231.49h24v44h.45l21.79-44h26.7L421,279.83l28.8,57.3Z"/><path class="cls-1" d="M466.64,337.13V231.49h51v21h-28.2v20.74h26V293h-26v22.83h30v21.34Z"/><path class="cls-1" d="M584.37,337.13l-14.18-42.08h-7v42.08h-23V231.49h33.87c20.44,0,32.38,10.74,32.38,31.78,0,15.67-8.06,24.32-14.92,26.71l18.05,47.15Zm-13.73-85.65h-7.46v26.71h7c6.72,0,12.69-4,12.69-13.58C582.88,253.87,576.16,251.48,570.64,251.48Z"/><rect class="cls-2" x="209.98" y="285.55" width="10.31" height="10.25"/><polygon class="cls-2" points="209.93 326.75 209.93 295.85 199.69 295.85 199.69 306.07 178.96 306.07 178.96 295.88 168.62 295.88 168.62 285.55 158.26 285.55 158.26 275.19 148.05 275.19 148.05 285.52 137.69 285.52 137.69 295.81 117 295.81 117 285.52 106.65 285.52 106.65 275.17 86.11 275.17 86.11 295.75 96.37 295.75 96.37 326.76 106.74 326.76 106.74 337.13 199.57 337.13 199.57 326.75 209.93 326.75"/><path class="cls-1" d="M270.87,205.33l.88-71.19h-.58l-17.43,71.19H237.18l-16.84-71.19h-.44l.73,58.54H199.39V101.62H229l16.7,66.8h.59l16.25-66.8h31.35V205.33Z"/><path class="cls-1" d="M347.93,208.11c-24.61,0-39.84-22-39.84-54.93S323,98.84,347.93,98.84c24.6,0,39.84,21.53,39.84,54.34S372.53,208.11,347.93,208.11Zm0-86.56c-10.7,0-15.82,13.62-15.82,31.63s5.12,31.93,15.82,31.93c10.54,0,15.81-13.91,15.81-31.93S358.47,121.55,347.93,121.55Z"/><path class="cls-1" d="M431.13,205.33H402V101.62h29.15c29.73,0,43.06,20.22,43.06,52.15C474.19,185.11,460.72,205.33,431.13,205.33Zm.29-83.2h-5.71v62.69h5.71c11.28,0,19.19-11,19.19-31C450.61,133,442.7,122.13,431.42,122.13Z"/><path class="cls-1" d="M488.41,205.33V101.62H538.5v20.66H510.82v20.36H536.3V162H510.82v22.41h29.44v21Z"/><path class="cls-1" d="M554,205.33V101.62h23.73v82h27.68v21.68Z"/><path class="cls-1" d="M137.67,151.1V140.75H127.31v-10.3h-31v10.33H85.91V151.1H75.6v31H86v10.35h10.3v10.3h31v-10.3h10.35V182.11H148v-31Zm-31,20.73-10.36,0V151.11l10.36,0Z"/><rect class="cls-1" x="148" y="161.54" width="31" height="10.41"/><rect class="cls-1" x="178.95" y="171.81" width="20.77" height="10.41"/><rect class="cls-1" x="199.57" y="182.16" width="20.77" height="10.41"/><rect class="cls-1" x="220.27" y="192.52" width="10.41" height="20.77"/><rect class="cls-1" x="230.61" y="213.15" width="10.41" height="20.77"/><rect class="cls-1" x="65.31" y="213.1" width="10.41" height="20.75"/><rect class="cls-1" x="75.67" y="192.33" width="10.41" height="20.75"/><rect class="cls-1" x="55" y="233.8" width="10.41" height="31.03"/><rect class="cls-1" x="65.35" y="264.72" width="41.51" height="10.41"/><rect class="cls-1" x="106.65" y="275.07" width="10.41" height="10.41"/><rect class="cls-1" x="75.7" y="275.12" width="10.41" height="20.63"/><rect class="cls-1" x="85.96" y="295.7" width="10.41" height="31.11"/><rect class="cls-1" x="96.33" y="326.71" width="10.41" height="10.41"/><rect class="cls-1" x="106.65" y="337.08" width="92.99" height="10.41"/><rect class="cls-1" x="178.95" y="295.62" width="20.73" height="10.41"/><rect class="cls-1" x="168.62" y="285.43" width="10.41" height="10.41"/><rect class="cls-1" x="158.26" y="275.1" width="10.41" height="10.41"/><rect class="cls-1" x="147.97" y="264.74" width="10.41" height="10.41"/><rect class="cls-1" x="137.64" y="275.07" width="10.41" height="10.41"/><rect class="cls-1" x="116.99" y="285.36" width="20.69" height="10.41"/><path class="cls-1" d="M216.94,89.4a14.46,14.46,0,0,1-4.39.62c-9,0-13.89-6.81-13.89-15.78s4.92-15.72,13.89-15.72,13.88,6.76,13.88,15.72-4.74,12.48-5.19,12.83a15.07,15.07,0,0,0,3.87,4.4L221,94.28A14,14,0,0,1,216.94,89.4ZM214.65,85a14.75,14.75,0,0,0-3.69-4l4-2.72a11.91,11.91,0,0,1,3.47,4.13s2.11-2.46,2.11-8.09c0-5.8-2.28-11-8-11s-8,5.18-8,11,2.28,11,8,11A6.63,6.63,0,0,0,214.65,85Z"/><path class="cls-1" d="M234.52,74.16c0-9.49,5.54-15.64,14-15.64s11.16,5.88,11.34,6.32l-4.75,2.73a6.64,6.64,0,0,0-6.59-4.31c-4.57,0-8.08,3.34-8.08,11s3.34,11,8.08,11,6.42-2.37,6.42-2.37V76.53H248V71.7h12.57V84.79S257,90,248.23,90,234.52,83.65,234.52,74.16Z"/><path class="cls-1" d="M271.87,59.13h5.72V89.36h-5.72Z"/><path class="cls-1" d="M286.82,81.71l4.74-2.46c1.76,4.4,4.92,6.07,7.73,6.07s4.92-1.5,4.92-4-1.84-3.6-4.39-4.39l-3.6-1.14C292.09,74.42,288,72.14,288,67s4.3-8.43,10.28-8.43,9.75,3.69,10.9,6.32L305,67.65a7.71,7.71,0,0,0-6.68-4.48c-2.82,0-4.57,1.23-4.57,3.43s2,3.08,4.3,3.78l3.61,1.14c3.34,1,8.43,3.34,8.43,9.14S305.62,90,299.21,90A13,13,0,0,1,286.82,81.71Z"/></svg>
