<svg id="Ebene_1" data-name="Ebene 1" xmlns="http://www.w3.org/2000/svg" viewBox="0 0 724.37 138.57"><defs><style>.cls-1{fill:#fff;}.cls-2{fill:#1d4660;}.cls-3{fill:#73a44d;}</style></defs><polygon class="cls-1" points="147.63 36.45 142.48 36.44 142.48 26.3 147.63 26.32 147.63 36.45"/><path class="cls-1" d="M202.94,52.09l.05-5.55h-10.2V41.43h-10v-5H167.7v5h-5.07v5.06h-5.06v5h-14.9v-5h-5.22V56.51h-5.06l0,9.95h-4.88l0,15.27H147.6V86.8h5v5l10.26,0v-5l4.95,0v-5h4.86v5.06h5l0,5h5.15v5H193.1V52.17Zm-75.63,4.43"/><path class="cls-2" d="M237.71,116.86l.56-44.74h-.37l-11,44.74h-10.4L206,72.12h-.28l.46,44.74H192.8V51.69h18.59l10.49,42h.37l10.22-42h19.7v65.17Z"/><path class="cls-2" d="M286.2,118.7c-15.46,0-25-13.81-25-34.52S270.56,50,286.2,50c15.47,0,25,13.53,25,34.15S301.67,118.7,286.2,118.7Zm0-54.4c-6.72,0-9.94,8.56-9.94,19.88s3.22,20.07,9.94,20.07,9.94-8.75,9.94-20.07S292.83,64.3,286.2,64.3Z"/><path class="cls-2" d="M338.49,117H320.18V51.78h18.31c18.69,0,27.06,12.7,27.06,32.77C365.55,104.25,357.09,117,338.49,117Zm.19-52.28h-3.59v39.39h3.59c7.08,0,12.05-6.9,12.05-19.51C350.73,71.48,345.76,64.67,338.68,64.67Z"/><path class="cls-2" d="M374.49,117V51.78H406v13h-17.4V77.55h16V89.7h-16v14.09h18.51V117Z"/><path class="cls-2" d="M415.74,117V51.78h14.91v51.55H448V117Z"/><path class="cls-2" d="M494.72,117H473.09V51.78H492.6c8.1,0,19.24,2.67,19.24,16.75,0,7.64-3.59,12.15-8.1,14.27V83c5,1.29,10.31,6.26,10.31,15.38C514.05,112.25,504,117,494.72,117Zm-3-52.93h-5V78.11h5.06c3.59,0,7-2,7-7.18S495.55,64,491.77,64Zm.37,24.86H486.8v15.83h5.52c4.33,0,7.74-2.58,7.74-7.73C500.06,91.18,495.91,88.88,492.14,88.88Z"/><path class="cls-2" d="M552.07,117l-2.67-11.87H534.77L532.1,117H517.37L533.2,51.78h18.5L567.44,117Zm-9.76-51H542l-5.53,27.7h11.14Z"/><path class="cls-2" d="M602.15,117l-13.9-30.28H588V117H573.16V51.78H588V78.93h.28l13.44-27.15h16.47L601.41,81.6,619.18,117Z"/><path class="cls-2" d="M625.45,117V51.78h31.47v13H639.53V77.55h16V89.7h-16v14.09H658V117Z"/><path class="cls-2" d="M693.93,117l-8.74-26h-4.33v26H666.69V51.78h20.89c12.61,0,20,6.63,20,19.61,0,9.66-5,15-9.2,16.47L709.49,117Zm-8.47-52.83h-4.6V80.59h4.33c4.14,0,7.82-2.48,7.82-8.37C693,65.59,688.87,64.12,685.46,64.12Z"/><rect class="cls-3" x="197.87" y="91.77" width="5.02" height="4.99"/><polygon class="cls-3" points="197.84 111.82 197.84 96.78 192.86 96.78 192.86 101.76 182.77 101.76 182.77 96.8 177.75 96.8 177.75 91.78 172.71 91.78 172.71 86.73 167.74 86.73 167.74 91.76 162.69 91.76 162.69 96.77 152.63 96.77 152.63 91.76 147.59 91.76 147.59 86.72 137.6 86.72 137.6 96.73 142.59 96.73 142.59 111.82 147.64 111.82 147.64 116.87 192.8 116.87 192.8 111.82 197.84 111.82"/><path class="cls-2" d="M162.69,26.35v-5h-5v-5H142.56v5H137.5v5h-5V41.44h5.06v5h5v5h15.08v-5h5v-5h5.05V26.35ZM147.6,36.44l-5,0V26.36h5Z"/><rect class="cls-2" x="167.71" y="31.43" width="15.09" height="5.06"/><rect class="cls-2" x="182.77" y="36.43" width="10.11" height="5.06"/><rect class="cls-2" x="192.8" y="41.46" width="10.11" height="5.06"/><rect class="cls-2" x="202.87" y="46.5" width="5.06" height="5.21"/><rect class="cls-2" x="127.48" y="56.52" width="5.06" height="10.1"/><rect class="cls-2" x="132.52" y="46.41" width="5.06" height="10.1"/><rect class="cls-2" x="122.46" y="66.59" width="5.06" height="15.1"/><rect class="cls-2" x="127.49" y="81.64" width="20.2" height="5.06"/><rect class="cls-2" x="147.59" y="86.67" width="5.06" height="5.06"/><rect class="cls-2" x="132.53" y="86.7" width="5.06" height="10.04"/><rect class="cls-2" x="137.52" y="96.71" width="5.06" height="15.14"/><rect class="cls-2" x="142.57" y="111.8" width="5.06" height="5.06"/><rect class="cls-2" x="147.59" y="116.85" width="45.25" height="5.06"/><rect class="cls-2" x="182.77" y="96.78" width="10.09" height="4.95"/><rect class="cls-2" x="177.74" y="91.71" width="5.06" height="5.06"/><rect class="cls-2" x="172.7" y="86.69" width="5.06" height="5.06"/><rect class="cls-2" x="167.69" y="81.65" width="5.06" height="5.06"/><rect class="cls-2" x="162.67" y="86.67" width="5.06" height="5.06"/><rect class="cls-2" x="152.62" y="91.68" width="10.07" height="5.06"/></svg>
