<svg id="Ebene_1" data-name="Ebene 1" xmlns="http://www.w3.org/2000/svg" viewBox="0 0 664.9 406.25"><defs><style>.cls-1{fill:#fff;}.cls-2{fill:#004e8d;}.cls-3{fill:#ae4c4a;}</style></defs><path class="cls-1" d="M75.89,213v20.79H65.56v30.92h41.52V275.1H117.3v10.31h20.62V275.1h10.35V264.75h10.42v10.38H169v10.35h10.37v10.21H200V231.44h31.1V213.21H220.7V192.56H199.79V182.09H179.31V171.8h-31V182H137.91v10.36H127.54v10.32H96.49V192.34H86.27V213H75.89Zm-10.42,0"/><polygon class="cls-1" points="107.69 173.3 95.71 173.27 95.71 149.34 107.69 149.38 107.69 173.3"/><path class="cls-2" d="M234.94,337.1H199.87V231.46h31.64c13.13,0,31.18,4.32,31.18,27.15,0,12.39-5.82,19.7-13.13,23.13v.3c8.06,2.09,16.71,10.15,16.71,24.92C266.27,329.49,250,337.1,234.94,337.1Zm-4.78-85.8H222.1v22.83h8.21c5.82,0,11.34-3.28,11.34-11.64C241.65,254.29,236.28,251.3,230.16,251.3Zm.6,40.29H222.1v25.66h9c7,0,12.53-4.17,12.53-12.53C243.59,295.32,236.88,291.59,230.76,291.59Z"/><path class="cls-2" d="M334.61,337.1l-4.33-19.25H306.55l-4.32,19.25H278.35L304,231.46h30L359.52,337.1Zm-15.82-82.66h-.6l-8.95,44.91h18.05Z"/><path class="cls-2" d="M422.49,337.1,400,288h-.45V337.1h-24V231.46h24v44H400l21.78-44h26.71L421.29,279.8l28.8,57.3Z"/><path class="cls-2" d="M467,337.1V231.46h51v21h-28.2v20.75h26v19.69h-26v22.83h30V337.1Z"/><path class="cls-2" d="M584.67,337.1,570.5,295h-7V337.1h-23V231.46h33.87c20.44,0,32.38,10.74,32.38,31.78,0,15.67-8.06,24.32-14.93,26.71l18.06,47.15Zm-13.73-85.65h-7.46v26.71h7c6.71,0,12.68-4,12.68-13.58C583.18,253.84,576.47,251.45,570.94,251.45Z"/><rect class="cls-3" x="210.28" y="285.52" width="10.31" height="10.25"/><polygon class="cls-3" points="210.24 326.72 210.24 295.82 199.99 295.82 199.99 306.04 179.26 306.04 179.26 295.85 168.93 295.85 168.93 285.52 158.57 285.52 158.57 275.16 148.36 275.16 148.36 285.49 138 285.49 138 295.78 117.3 295.78 117.3 285.49 106.96 285.49 106.96 275.14 86.41 275.14 86.41 295.72 96.68 295.72 96.68 326.73 107.05 326.73 107.05 337.1 199.88 337.1 199.88 326.72 210.24 326.72"/><path class="cls-2" d="M271.18,205.3l.88-71.19h-.59L254,205.3H237.49l-16.85-71.19h-.43l.73,58.54H199.7V101.59h29.59L246,168.39h.59l16.26-66.8h31.34V205.3Z"/><path class="cls-2" d="M348.23,208.08c-24.61,0-39.84-22-39.84-54.93,0-32.81,14.94-54.34,39.84-54.34,24.61,0,39.84,21.53,39.84,54.34C388.07,186.11,372.84,208.08,348.23,208.08Zm0-86.57c-10.69,0-15.82,13.63-15.82,31.64s5.13,31.93,15.82,31.93,15.82-13.91,15.82-31.93S358.78,121.51,348.23,121.51Z"/><path class="cls-2" d="M431.43,205.3H402.29V101.59h29.14c29.74,0,43.07,20.22,43.07,52.15C474.5,185.08,461,205.3,431.43,205.3Zm.3-83.2H426v62.69h5.72c11.28,0,19.18-11,19.18-31C450.91,132.94,443,122.1,431.73,122.1Z"/><path class="cls-2" d="M488.71,205.3V101.59H538.8v20.66H511.12v20.36h25.49v19.33H511.12v22.41h29.44v21Z"/><path class="cls-2" d="M554.34,205.3V101.59h23.72v82h27.69V205.3Z"/><path class="cls-2" d="M138,151.07V140.72H127.62v-10.3h-31v10.33H86.22v10.32H75.9v31H86.29v10.35h10.3v10.3h31v-10.3h10.36V182.08h10.38v-31ZM107,171.8l-10.36,0V151.08l10.36,0Z"/><rect class="cls-2" x="148.31" y="161.51" width="31" height="10.41"/><rect class="cls-2" x="179.26" y="171.78" width="20.77" height="10.41"/><rect class="cls-2" x="199.87" y="182.13" width="20.77" height="10.41"/><rect class="cls-2" x="220.57" y="192.48" width="10.41" height="20.77"/><rect class="cls-2" x="230.91" y="213.12" width="10.41" height="20.77"/><rect class="cls-2" x="65.62" y="213.07" width="10.41" height="20.75"/><rect class="cls-2" x="75.98" y="192.3" width="10.41" height="20.75"/><rect class="cls-2" x="55.3" y="233.77" width="10.41" height="31.03"/><rect class="cls-2" x="65.65" y="264.69" width="41.51" height="10.41"/><rect class="cls-2" x="106.96" y="275.04" width="10.41" height="10.41"/><rect class="cls-2" x="76" y="275.09" width="10.41" height="20.63"/><rect class="cls-2" x="86.27" y="295.67" width="10.41" height="31.11"/><rect class="cls-2" x="96.64" y="326.68" width="10.41" height="10.41"/><rect class="cls-2" x="106.96" y="337.05" width="92.99" height="10.41"/><rect class="cls-2" x="179.26" y="295.59" width="20.73" height="10.41"/><rect class="cls-2" x="168.93" y="285.4" width="10.41" height="10.41"/><rect class="cls-2" x="158.56" y="275.07" width="10.41" height="10.41"/><rect class="cls-2" x="148.27" y="264.71" width="10.41" height="10.41"/><rect class="cls-2" x="137.94" y="275.04" width="10.41" height="10.41"/><rect class="cls-2" x="117.3" y="285.33" width="20.69" height="10.41"/><path class="cls-2" d="M217.24,89.37a14.38,14.38,0,0,1-4.39.62c-9,0-13.88-6.81-13.88-15.78s4.92-15.72,13.88-15.72,13.89,6.76,13.89,15.72S222,86.69,221.55,87a14.92,14.92,0,0,0,3.87,4.4l-4.13,2.81A13.87,13.87,0,0,1,217.24,89.37ZM215,84.93a15,15,0,0,0-3.69-4l4-2.72a12,12,0,0,1,3.47,4.13s2.11-2.46,2.11-8.09c0-5.8-2.29-11-8-11s-8,5.18-8,11,2.29,11,8,11A6.43,6.43,0,0,0,215,84.93Z"/><path class="cls-2" d="M234.83,74.13c0-9.49,5.53-15.64,14-15.64s11.16,5.88,11.33,6.32l-4.74,2.73a6.64,6.64,0,0,0-6.59-4.31c-4.57,0-8.09,3.34-8.09,11s3.34,11,8.09,11,6.41-2.37,6.41-2.37V76.5h-6.94V71.67h12.57V84.76S257.32,90,248.53,90,234.83,83.62,234.83,74.13Z"/><path class="cls-2" d="M272.18,59.1h5.71V89.33h-5.71Z"/><path class="cls-2" d="M287.12,81.68l4.75-2.46c1.75,4.4,4.92,6.07,7.73,6.07s4.92-1.5,4.92-4.05-1.85-3.6-4.39-4.39l-3.61-1.14c-4.13-1.32-8.26-3.6-8.26-8.79s4.31-8.43,10.28-8.43,9.76,3.69,10.9,6.32l-4.13,2.81a7.71,7.71,0,0,0-6.68-4.48c-2.81,0-4.57,1.23-4.57,3.43s2,3.07,4.31,3.78l3.6,1.14c3.34,1.05,8.44,3.34,8.44,9.14S305.92,90,299.51,90A13,13,0,0,1,287.12,81.68Z"/></svg>
