<svg id="Ebene_1" data-name="Ebene 1" xmlns="http://www.w3.org/2000/svg" viewBox="0 0 664.9 406.25"><defs><style>.cls-1{fill:#004e8d;}.cls-2{fill:#ae4c4a;}</style></defs><path class="cls-1" d="M234.9,317.05H199.83V211.41h31.64c13.13,0,31.18,4.33,31.18,27.16,0,12.38-5.82,19.69-13.13,23.12v.3c8.06,2.09,16.71,10.15,16.71,24.92C266.23,309.44,250,317.05,234.9,317.05Zm-4.78-85.79h-8.05v22.82h8.2c5.82,0,11.34-3.28,11.34-11.63S236.24,231.26,230.12,231.26Zm.6,40.28h-8.65v25.67h9c7,0,12.53-4.18,12.53-12.54C243.55,275.27,236.84,271.54,230.72,271.54Z"/><path class="cls-1" d="M334.57,317.05l-4.33-19.25H306.51l-4.32,19.25H278.31L304,211.41h30l25.51,105.64Zm-15.82-82.66h-.6L309.2,279.3h18.05Z"/><path class="cls-1" d="M422.45,317.05,399.92,268h-.45v49.09h-24V211.41h24v44h.45l21.78-44h26.71l-27.16,48.35,28.8,57.29Z"/><path class="cls-1" d="M466.91,317.05V211.41h51v21h-28.2v20.74h26v19.7h-26v22.83h30v21.33Z"/><path class="cls-1" d="M584.63,317.05,570.46,275h-7v42.07h-23V211.41h33.87c20.44,0,32.38,10.74,32.38,31.78,0,15.67-8.06,24.32-14.92,26.71l18.05,47.15ZM570.9,231.41h-7.46v26.7h7c6.71,0,12.68-4,12.68-13.57C583.14,233.79,576.43,231.41,570.9,231.41Z"/><rect class="cls-2" x="210.24" y="265.48" width="10.31" height="10.25"/><polygon class="cls-2" points="210.2 306.67 210.2 275.77 199.95 275.77 199.95 286 179.22 286 179.22 275.81 168.89 275.81 168.89 265.48 158.53 265.48 158.53 255.12 148.32 255.12 148.32 265.44 137.96 265.44 137.96 275.74 117.26 275.74 117.26 265.44 106.92 265.44 106.92 255.1 86.37 255.1 86.37 275.67 96.64 275.67 96.64 306.68 107.01 306.68 107.01 317.05 199.84 317.05 199.84 306.67 210.2 306.67"/><path class="cls-1" d="M271.14,185.25l.88-71.18h-.59L254,185.25H237.45l-16.84-71.18h-.44l.73,58.53H199.66v-91h29.59l16.69,66.79h.59l16.26-66.79h31.34v103.7Z"/><path class="cls-1" d="M348.19,188c-24.61,0-39.84-22-39.84-54.92s14.94-54.34,39.84-54.34c24.61,0,39.84,21.53,39.84,54.34S372.8,188,348.19,188Zm0-86.56c-10.69,0-15.82,13.62-15.82,31.64S337.5,165,348.19,165,364,151.12,364,133.11,358.74,101.47,348.19,101.47Z"/><path class="cls-1" d="M431.39,185.25H402.25V81.55h29.14c29.74,0,43.07,20.21,43.07,52.14C474.46,165,461,185.25,431.39,185.25Zm.3-83.19H426v62.68h5.72c11.28,0,19.18-11,19.18-31.05C450.87,112.89,443,102.06,431.69,102.06Z"/><path class="cls-1" d="M488.67,185.25V81.55h50.1V102.2H511.08v20.36h25.49V141.9H511.08v22.41h29.44v20.94Z"/><path class="cls-1" d="M554.3,185.25V81.55H578v82h27.68v21.68Z"/><path class="cls-1" d="M137.94,131V120.68H127.58V110.37h-31V120.7H86.18V131H75.86v31H86.25v10.34h10.3v10.3h31v-10.3H137.9V162h10.38V131Zm-31,20.73-10.36,0V131l10.36,0Z"/><rect class="cls-1" x="148.27" y="141.47" width="31" height="10.41"/><rect class="cls-1" x="179.22" y="151.74" width="20.77" height="10.41"/><rect class="cls-1" x="199.83" y="162.08" width="20.77" height="10.41"/><rect class="cls-1" x="220.53" y="172.44" width="10.41" height="20.77"/><rect class="cls-1" x="230.87" y="193.07" width="10.41" height="20.77"/><rect class="cls-1" x="65.58" y="193.02" width="10.41" height="20.75"/><rect class="cls-1" x="75.94" y="172.25" width="10.41" height="20.75"/><rect class="cls-1" x="55.26" y="213.73" width="10.41" height="31.03"/><rect class="cls-1" x="65.61" y="244.64" width="41.51" height="10.41"/><rect class="cls-1" x="106.92" y="254.99" width="10.41" height="10.41"/><rect class="cls-1" x="75.96" y="255.05" width="10.41" height="20.63"/><rect class="cls-1" x="86.23" y="275.63" width="10.41" height="31.11"/><rect class="cls-1" x="96.6" y="306.64" width="10.41" height="10.41"/><rect class="cls-1" x="106.92" y="317.01" width="92.99" height="10.41"/><rect class="cls-1" x="179.22" y="275.54" width="20.73" height="10.41"/><rect class="cls-1" x="168.89" y="265.35" width="10.41" height="10.41"/><rect class="cls-1" x="158.52" y="255.03" width="10.41" height="10.41"/><rect class="cls-1" x="148.23" y="244.66" width="10.41" height="10.41"/><rect class="cls-1" x="137.9" y="254.99" width="10.41" height="10.41"/><rect class="cls-1" x="117.26" y="265.28" width="20.69" height="10.41"/></svg>
