<svg id="Ebene_1" data-name="Ebene 1" xmlns="http://www.w3.org/2000/svg" viewBox="0 0 248.88 278.36"><defs><style>.cls-1{fill:#fff;}.cls-2{fill:#ae4c4a;}.cls-3{fill:#004e8d;}</style></defs><polyline class="cls-1" points="224.49 168.61 224.49 133.32 212.86 133.32 212.86 109.76 201.05 109.76 201.05 86.11 177.42 86.11 177.42 74.3 153.89 74.3 153.89 62.57 118.63 62.57 118.63 74.26 106.77 74.26 106.77 86.07 94.95 86.07 94.95 97.83 59.57 97.83 59.57 86.07 47.89 86.07 47.89 109.64 36.03 109.64 36.03 133.24 24.25 133.24 24.25 168.48 71.58 168.48 71.58 180.3 83.22 180.3 83.22 192.05 106.72 192.05 106.72 180.3 118.51 180.3 118.51 168.51 130.39 168.51 130.39 180.34 142.14 180.34 142.14 192.12 153.97 192.12 153.97 203.76 177.42 203.76 177.42 192.09 189.25 192.09 189.25 180.34 201.08 180.34 201.08 180.26 212.74 180.26 212.74 168.84 224.63 168.84"/><rect class="cls-2" x="189.23" y="192.26" width="11.77" height="11.7"/><polygon class="cls-2" points="189.18 239.25 189.18 204 177.49 204 177.49 215.66 153.84 215.66 153.84 204.04 142.05 204.04 142.05 192.26 130.24 192.26 130.24 180.44 118.58 180.44 118.58 192.22 106.77 192.22 106.77 203.96 83.16 203.96 83.16 192.22 71.36 192.22 71.36 180.41 47.92 180.41 47.92 203.89 59.63 203.89 59.63 239.26 71.46 239.26 71.46 251.09 177.36 251.09 177.36 239.25 189.18 239.25"/><path class="cls-3" d="M153.92,50.83h-35.3V39h-11.8V27.2H95V15.45H59.63V27.23H47.78V39H36V74.38H47.86V86.19H59.61V97.94H95V86.19h11.81V74.38h11.84V62.71h35.3ZM71.45,62.65l-11.82,0V39l11.82,0Z"/><rect class="cls-3" x="153.86" y="62.55" width="23.7" height="11.87"/><rect class="cls-3" x="177.38" y="74.35" width="23.7" height="11.87"/><rect class="cls-3" x="200.99" y="86.16" width="11.87" height="23.7"/><rect class="cls-3" x="212.78" y="109.7" width="11.87" height="23.7"/><rect class="cls-3" x="36.07" y="86.15" width="11.87" height="23.59"/><rect class="cls-3" x="24.22" y="109.64" width="11.87" height="23.67"/><rect class="cls-3" x="12.45" y="133.27" width="11.87" height="35.4"/><rect class="cls-3" x="224.41" y="133.27" width="11.87" height="35.4"/><rect class="cls-3" x="71.37" y="180.34" width="11.87" height="11.87"/><polygon class="cls-3" points="71.61 168.53 24.26 168.53 24.26 180.41 36.06 180.41 36.06 203.93 47.94 203.93 47.94 180.41 71.61 180.41 71.61 168.53"/><rect class="cls-3" x="47.77" y="203.88" width="11.87" height="35.49"/><rect class="cls-3" x="59.6" y="239.26" width="11.87" height="11.87"/><rect class="cls-3" x="71.37" y="251.09" width="106.08" height="11.87"/><rect class="cls-3" x="177.37" y="239.24" width="11.87" height="11.87"/><rect class="cls-3" x="189.19" y="203.95" width="11.87" height="35.43"/><polygon class="cls-3" points="189.19 180.31 212.88 180.31 212.88 204.03 201.01 204.03 201.01 192.25 189.19 192.25 189.19 180.31"/><rect class="cls-3" x="177.37" y="192.12" width="11.87" height="11.87"/><rect class="cls-3" x="212.67" y="168.89" width="11.87" height="11.87"/><rect class="cls-3" x="153.86" y="203.79" width="23.65" height="11.87"/><rect class="cls-3" x="142.07" y="192.16" width="11.87" height="11.87"/><rect class="cls-3" x="130.25" y="180.38" width="11.87" height="11.87"/><rect class="cls-3" x="118.51" y="168.56" width="11.87" height="11.87"/><rect class="cls-3" x="106.73" y="180.34" width="11.87" height="11.87"/><rect class="cls-3" x="83.17" y="192.08" width="23.61" height="11.87"/></svg>
