<?xml version="1.0" encoding="UTF-8"?>
<svg version="1.1" viewBox="0 0 256 256" xml:space="preserve" xmlns="http://www.w3.org/2000/svg" xmlns:cc="http://creativecommons.org/ns#" xmlns:dc="http://purl.org/dc/elements/1.1/" xmlns:rdf="http://www.w3.org/1999/02/22-rdf-syntax-ns#" xmlns:xlink="http://www.w3.org/1999/xlink"><defs><style>.cls-1{fill:#fff;}.cls-2{fill:#73a44d;}.cls-3{fill:#1d4660}</style></defs><metadata><rdf:RDF><cc:Work rdf:about=""><dc:format>image/svg+xml</dc:format><dc:type rdf:resource="http://purl.org/dc/dcmitype/StillImage"/></cc:Work></rdf:RDF></metadata><g><path transform="matrix(.95435 0 0 .93271 8.7116 7.402)" x="12.161024" y="16.762953" width="200.32358" height="198.31857" rx="1.2195174" ry="1.0109379" d="m34.6 16.763h155.45c11.719 0 22.439 0.13608 22.439 1.0109v175.08c0 11.719-0.34466 22.23-1.2195 22.23h-176.67c-11.719 0-22.439-0.13608-22.439-1.0109v-175.08c0-11.719 0.34466-22.23 1.2195-22.23z" fill="#a5a5a5" fill-rule="evenodd" stroke="#3c3c3c" stroke-linejoin="round" stroke-miterlimit="15" stroke-width="13.284" style="paint-order:markers stroke fill"/><text transform="scale(.98397 1.0163)" x="24.511997" y="107.15208" fill="#555555" font-family="'DejaVu Sans Mono'" font-size="103.22px" font-weight="700" letter-spacing="0" stroke="#555555" stroke-width="4.725" word-spacing="0"><tspan x="24.511997" y="107.15208" stroke-width="4.725">123</tspan></text><text transform="scale(.98397 1.0163)" x="28.7061" y="194.19786" fill="#555555" font-family="'DejaVu Sans Mono'" font-size="100.21px" font-weight="700" letter-spacing="0" stroke="#555555" stroke-width="4.5919" word-spacing="0"><tspan x="28.7061" y="194.19786" stroke-width="4.5919">ab</tspan></text><g transform="translate(-9.2259 -5.6802)"><path d="m181.07 120.27-5.0552 14.064 0.0755 0.81841 2.4552 12.213-14.228 5.88-6.8935-10.362-0.52882-0.61695-13.523-6.3836-7.4916 7.4916 6.3836 13.523 0.61695 0.52882 10.362 6.8998-5.8862 14.215-12.213-2.4552-0.81841-0.063-14.058 5.049v10.602l14.064 5.0552 0.81841-0.0755 12.213-2.4552 5.88 14.228-10.362 6.8935-0.61695 0.52882-6.3836 13.523 7.4916 7.4916 13.523-6.3836 0.52882-0.61695 6.8998-10.362 14.215 5.8862-2.4552 12.213-0.063 0.81841 5.049 14.058h10.602l5.0552-14.064-0.0755-0.81841-2.4552-12.213 14.228-5.88 6.8935 10.362 0.52882 0.61695 13.523 6.3836 7.4916-7.4916-6.3836-13.523-0.61695-0.52882-10.362-6.8998 5.8862-14.215 12.213 2.4552 0.81841 0.063 14.058-5.049v-10.602l-14.064-5.0552-0.81841 0.0755-12.213 2.4552-5.88-14.228 10.362-6.8935 0.61695-0.52882 6.3836-13.523-7.4916-7.4916-13.523 6.3836-0.52882 0.61695-6.8998 10.362-14.215-5.8862 2.4552-12.213 0.063-0.81841-5.049-14.058zm5.3008 50.364a15.739 15.739 0 0 1 15.739 15.739 15.739 15.739 0 0 1-15.739 15.739 15.739 15.739 0 0 1-15.739-15.739 15.739 15.739 0 0 1 15.739-15.739z" fill="#98b5d8" stroke="#457abe" stroke-width="6.2954"/></g></g></svg>
