<svg id="Ebene_1" data-name="Ebene 1" xmlns="http://www.w3.org/2000/svg" viewBox="0 0 664.9 406.25"><defs><style>.cls-1{fill:#fff;}.cls-2{fill:#1b4761;}.cls-3{fill:#73a44d;}</style></defs><path class="cls-1" d="M75.71,192.72v20.79H65.37v30.93H106.9V254.8h10.22v10.32h20.62V254.8h10.34V244.46h10.43v10.38h10.31v10.34H179.2v10.21h20.58V211.14h31.09V192.91H220.51V172.27H199.6V161.79H179.13V151.5h-31v10.18h-10.4v10.37H127.36v10.32h-31V172.05H86.09V192.7H75.71Zm-10.43,0"/><polygon class="cls-1" points="107.12 153.44 95.14 153.4 95.14 129.47 107.12 129.51 107.12 153.44"/><path class="cls-2" d="M234.81,316.79H199.75V211.15h31.63c13.13,0,31.19,4.33,31.19,27.16,0,12.38-5.82,19.69-13.13,23.13v.29c8.06,2.09,16.71,10.15,16.71,24.92C266.15,309.18,249.89,316.79,234.81,316.79ZM230,231H222v22.83h8.21c5.82,0,11.34-3.29,11.34-11.64S236.16,231,230,231Zm.6,40.28H222V297h9c7,0,12.53-4.18,12.53-12.54C243.47,275,236.75,271.28,230.64,271.28Z"/><path class="cls-2" d="M334.48,316.79l-4.32-19.25H306.43l-4.33,19.25H278.23l25.66-105.64h30L359.4,316.79Zm-15.81-82.66h-.6L309.12,279h18.05Z"/><path class="cls-2" d="M422.36,316.79,399.83,267.7h-.44v49.09h-24V211.15h24v44h.44l21.79-44h26.71L421.17,259.5,450,316.79Z"/><path class="cls-2" d="M466.83,316.79V211.15h51v21h-28.2v20.74h26v19.7h-26v22.83h30v21.33Z"/><path class="cls-2" d="M584.55,316.79l-14.18-42.07h-7v42.07h-23V211.15h33.87c20.45,0,32.38,10.74,32.38,31.78,0,15.67-8,24.33-14.92,26.71l18.06,47.15Zm-13.73-85.64h-7.46v26.7h7c6.72,0,12.69-4,12.69-13.57C583.06,233.53,576.34,231.15,570.82,231.15Z"/><rect class="cls-3" x="210.16" y="265.22" width="10.31" height="10.25"/><polygon class="cls-3" points="210.12 306.41 210.12 275.51 199.87 275.51 199.87 285.74 179.14 285.74 179.14 275.55 168.81 275.55 168.81 265.22 158.45 265.22 158.45 254.86 148.23 254.86 148.23 265.19 137.87 265.19 137.87 275.48 117.18 275.48 117.18 265.19 106.84 265.19 106.84 254.84 86.29 254.84 86.29 275.41 96.56 275.41 96.56 306.42 106.93 306.42 106.93 316.79 199.75 316.79 199.75 306.41 210.12 306.41"/><path class="cls-2" d="M271.06,185l.87-71.18h-.58L253.92,185H237.37l-16.85-71.18h-.44l.74,58.53H199.58v-91h29.58l16.7,66.79h.59l16.26-66.79h31.34V185Z"/><path class="cls-2" d="M348.11,187.77c-24.61,0-39.84-22-39.84-54.92s14.94-54.34,39.84-54.34C372.72,78.51,388,100,388,132.85S372.72,187.77,348.11,187.77Zm0-86.56c-10.69,0-15.82,13.62-15.82,31.64s5.13,31.93,15.82,31.93c10.54,0,15.82-13.92,15.82-31.93S358.65,101.21,348.11,101.21Z"/><path class="cls-2" d="M431.31,185H402.16V81.29h29.15c29.74,0,43.06,20.21,43.06,52.14C474.37,164.78,460.9,185,431.31,185Zm.29-83.19h-5.71v62.69h5.71c11.28,0,19.19-11,19.19-31.06C450.79,112.63,442.88,101.8,431.6,101.8Z"/><path class="cls-2" d="M488.59,185V81.29h50.09v20.65H511V122.3h25.49v19.34H511v22.41h29.44V185Z"/><path class="cls-2" d="M554.21,185V81.29h23.73v82h27.69V185Z"/><path class="cls-2" d="M137.85,130.76V120.42H127.5V110.11h-31v10.33H86.1v10.32H75.78v31H86.17v10.34h10.3v10.3h31v-10.3h10.36V161.78H148.2v-31Zm-31,20.73-10.36,0V130.77l10.36,0Z"/><rect class="cls-2" x="148.18" y="141.21" width="31" height="10.41"/><rect class="cls-2" x="179.14" y="151.48" width="20.77" height="10.41"/><rect class="cls-2" x="199.75" y="161.82" width="20.77" height="10.41"/><rect class="cls-2" x="220.45" y="172.18" width="10.41" height="20.77"/><rect class="cls-2" x="230.79" y="192.81" width="10.41" height="20.77"/><rect class="cls-2" x="65.5" y="192.76" width="10.41" height="20.75"/><rect class="cls-2" x="75.85" y="171.99" width="10.41" height="20.75"/><rect class="cls-2" x="55.18" y="213.47" width="10.41" height="31.03"/><rect class="cls-2" x="65.53" y="244.38" width="41.51" height="10.41"/><rect class="cls-2" x="106.83" y="254.73" width="10.41" height="10.41"/><rect class="cls-2" x="75.88" y="254.79" width="10.41" height="20.63"/><rect class="cls-2" x="86.14" y="275.37" width="10.41" height="31.11"/><rect class="cls-2" x="96.52" y="306.38" width="10.41" height="10.41"/><rect class="cls-2" x="106.83" y="316.75" width="92.99" height="10.41"/><rect class="cls-2" x="179.14" y="275.28" width="20.73" height="10.41"/><rect class="cls-2" x="168.8" y="265.09" width="10.41" height="10.41"/><rect class="cls-2" x="158.44" y="254.77" width="10.41" height="10.41"/><rect class="cls-2" x="148.15" y="244.41" width="10.41" height="10.41"/><rect class="cls-2" x="137.82" y="254.73" width="10.41" height="10.41"/><rect class="cls-2" x="117.18" y="265.03" width="20.69" height="10.41"/></svg>
