<?xml version="1.0" encoding="UTF-8" standalone="no"?>
<svg
   id="Ebene_1"
   data-name="Ebene 1"
   viewBox="0 0 248.88 278.36"
   version="1.1"
   sodipodi:docname="QgisModelBaker-topping-icon.svg"
   inkscape:version="1.2 (1:1.2.1+202207142221+cd75a1ee6d)"
   xml:space="preserve"
   xmlns:inkscape="http://www.inkscape.org/namespaces/inkscape"
   xmlns:sodipodi="http://sodipodi.sourceforge.net/DTD/sodipodi-0.dtd"
   xmlns="http://www.w3.org/2000/svg"
   xmlns:svg="http://www.w3.org/2000/svg"><sodipodi:namedview
     id="namedview65"
     pagecolor="#ffffff"
     bordercolor="#000000"
     borderopacity="0.25"
     inkscape:showpageshadow="2"
     inkscape:pageopacity="0.0"
     inkscape:pagecheckerboard="0"
     inkscape:deskcolor="#d1d1d1"
     showgrid="false"
     inkscape:zoom="1.3044236"
     inkscape:cx="225.77022"
     inkscape:cy="132.62563"
     inkscape:window-width="1720"
     inkscape:window-height="1403"
     inkscape:window-x="26"
     inkscape:window-y="23"
     inkscape:window-maximized="0"
     inkscape:current-layer="Ebene_1" /><defs
     id="defs4"><style
       id="style2">.cls-1{fill:#fff;}.cls-2{fill:#73a44d;}.cls-3{fill:#1d4660}</style></defs><polygon
     class="cls-1"
     points="59.69,62.75 59.69,38.83 71.67,38.86 71.67,62.79 "
     id="polygon6"
     transform="matrix(1.0686944,0,0,1.0686944,-8.9377184,-10.828458)" /><polyline
     class="cls-1"
     points="224.6 168.61 224.6 133.32 212.97 133.32 212.97 109.76 201.17 109.76 201.17 86.11 177.54 86.11 177.54 74.3 154 74.3 154 62.57 118.74 62.57 118.74 74.26 106.89 74.26 106.89 86.07 95.07 86.07 95.07 97.83 59.68 97.83 59.68 86.07 48.01 86.07 48.01 109.64 36.15 109.64 36.15 133.24 24.37 133.24 24.37 168.48 71.69 168.48 71.69 180.3 83.34 180.3 83.34 192.05 106.84 192.05 106.84 180.3 118.63 180.3 118.63 168.51 130.51 168.51 130.51 180.34 142.26 180.34 142.26 192.12 154.09 192.12 154.09 203.76 177.53 203.76 177.53 192.09 189.36 192.09 189.36 180.34 201.19 180.34 201.19 180.26 212.86 180.26 212.86 168.84 224.74 168.84"
     id="polyline8"
     transform="matrix(1.0686944,0,0,1.0686944,-8.9377184,-10.828458)" /><path
     class="cls-3"
     d="M 155.64122,43.49328 H 117.95906 V 30.850625 H 105.34847 V 18.24003 H 92.716503 V 5.6828711 H 54.906087 V 18.272092 H 42.242059 V 30.850625 H 29.663524 V 68.661034 H 42.359615 V 81.282308 H 54.884714 V 93.839475 H 92.673743 V 81.282308 H 105.29503 V 68.661034 h 12.66403 V 56.18937 h 37.68216 z M 67.538056,56.125249 H 54.906087 V 30.850625 h 12.631969 z"
     id="path14"
     style="stroke-width:1.06869" /><rect
     class="cls-3"
     x="155.60918"
     y="56.018387"
     width="25.328058"
     height="12.685403"
     id="rect16"
     style="stroke-width:1.06869" /><rect
     class="cls-3"
     x="180.74486"
     y="68.628975"
     width="25.328058"
     height="12.685403"
     id="rect18"
     style="stroke-width:1.06869" /><rect
     class="cls-3"
     x="205.97673"
     y="81.250259"
     width="12.685403"
     height="25.328058"
     id="rect20"
     style="stroke-width:1.06869" /><rect
     class="cls-3"
     x="218.58731"
     y="106.40733"
     width="12.685403"
     height="25.328058"
     id="rect22"
     style="stroke-width:1.06869" /><rect
     class="cls-3"
     x="29.72765"
     y="81.239571"
     width="12.685403"
     height="25.210503"
     id="rect24"
     style="stroke-width:1.06869" /><rect
     class="cls-3"
     x="17.063616"
     y="106.34319"
     width="12.685403"
     height="25.295998"
     id="rect26"
     style="stroke-width:1.06869" /><rect
     class="cls-3"
     x="4.485085"
     y="131.59645"
     width="12.685403"
     height="37.831783"
     id="rect28"
     style="stroke-width:1.06869" /><rect
     class="cls-3"
     x="231.06076"
     y="131.61806"
     width="12.685403"
     height="44.037224"
     id="rect30"
     style="stroke-width:1.15302" /><rect
     class="cls-3"
     x="218.45909"
     y="169.66335"
     width="12.685403"
     height="12.685403"
     id="rect50"
     style="stroke-width:1.06869" /><path
     d="M 238.43827,175.04194 101.25804,99.14125 V 149.7418 H 9.8044008 v 50.60041 H 101.25804 v 50.60057 z"
     fill="#adde9b"
     fill-rule="evenodd"
     stroke="#415a75"
     stroke-linejoin="round"
     id="path917"
     style="fill:#adde9b;fill-opacity:1;stroke:#1d4660;stroke-width:10.6849;stroke-opacity:1" /></svg>
