<?xml version="1.0" encoding="UTF-8" standalone="no"?>
<svg
   id="Ebene_1"
   data-name="Ebene 1"
   viewBox="0 0 248.88 278.36"
   version="1.1"
   sodipodi:docname="xtfimport.svg"
   inkscape:version="1.3.2 (1:1.3.2+202311252150+091e20ef0f)"
   xml:space="preserve"
   inkscape:export-filename="exportxtf.svg"
   inkscape:export-xdpi="96"
   inkscape:export-ydpi="96"
   xmlns:inkscape="http://www.inkscape.org/namespaces/inkscape"
   xmlns:sodipodi="http://sodipodi.sourceforge.net/DTD/sodipodi-0.dtd"
   xmlns="http://www.w3.org/2000/svg"
   xmlns:svg="http://www.w3.org/2000/svg"><sodipodi:namedview
     id="namedview65"
     pagecolor="#ffffff"
     bordercolor="#000000"
     borderopacity="0.25"
     inkscape:showpageshadow="2"
     inkscape:pageopacity="0.0"
     inkscape:pagecheckerboard="0"
     inkscape:deskcolor="#d1d1d1"
     showgrid="false"
     inkscape:zoom="1.8447335"
     inkscape:cx="73.723384"
     inkscape:cy="167.23282"
     inkscape:window-width="1720"
     inkscape:window-height="1403"
     inkscape:window-x="1111"
     inkscape:window-y="36"
     inkscape:window-maximized="0"
     inkscape:current-layer="Ebene_1" /><defs
     id="defs4"><rect
       x="8.6886961"
       y="12.746403"
       width="207.43605"
       height="171.37952"
       id="rect1" /><style
       id="style2">.cls-1{fill:#fff;}.cls-2{fill:#73a44d;}.cls-3{fill:#1d4660}</style></defs><polygon
     class="cls-1"
     points="59.69,62.75 59.69,38.83 71.67,38.86 71.67,62.79 "
     id="polygon6"
     transform="matrix(1.0686944,0,0,1.0686944,-8.9377184,-10.828458)" /><polyline
     class="cls-1"
     points="224.6 168.61 224.6 133.32 212.97 133.32 212.97 109.76 201.17 109.76 201.17 86.11 177.54 86.11 177.54 74.3 154 74.3 154 62.57 118.74 62.57 118.74 74.26 106.89 74.26 106.89 86.07 95.07 86.07 95.07 97.83 59.68 97.83 59.68 86.07 48.01 86.07 48.01 109.64 36.15 109.64 36.15 133.24 24.37 133.24 24.37 168.48 71.69 168.48 71.69 180.3 83.34 180.3 83.34 192.05 106.84 192.05 106.84 180.3 118.63 180.3 118.63 168.51 130.51 168.51 130.51 180.34 142.26 180.34 142.26 192.12 154.09 192.12 154.09 203.76 177.53 203.76 177.53 192.09 189.36 192.09 189.36 180.34 201.19 180.34 201.19 180.26 212.86 180.26 212.86 168.84 224.74 168.84"
     id="polyline8"
     transform="matrix(1.0686944,0,0,1.0686944,-8.9377184,-10.828458)" /><rect
     class="cls-3"
     x="218.45909"
     y="169.66335"
     width="12.685403"
     height="12.685403"
     id="rect50"
     style="stroke-width:1.06869" /><text
     xml:space="preserve"
     id="text1"
     style="font-size:192px;white-space:pre;shape-inside:url(#rect1);display:inline;fill:#e6dfdf;fill-opacity:0.946434"><tspan
       x="8.6894531"
       y="354"
       id="tspan4"><tspan
         dx="0 42.71875 39.09375"
         style="font-size:64px;fill:#000000"
         id="tspan3">XTF</tspan></tspan></text><text
     xml:space="preserve"
     style="font-size:106.667px;line-height:2;fill:#000000;fill-opacity:0.946434;stroke-width:6.9;stroke-dasharray:none"
     x="7.1631532"
     y="119.42193"
     id="text2"><tspan
       sodipodi:role="line"
       id="tspan2"
       x="7.1631532"
       y="119.42193"
       style="font-style:normal;font-variant:normal;font-weight:bold;font-stretch:normal;font-size:106.667px;line-height:2;font-family:sans-serif;-inkscape-font-specification:'sans-serif Bold';fill:#a9a9a9;fill-opacity:0.946434;stroke:#050e1d;stroke-width:6.9;stroke-dasharray:none;stroke-opacity:1">XTF</tspan></text><path
     d="M 11.031935,175.04194 147.16596,99.120011 v 50.614709 h 90.75613 v 50.61457 h -90.75613 v 50.61473 z"
     fill="#adde9b"
     fill-rule="evenodd"
     stroke="#415a75"
     stroke-linejoin="round"
     id="path917"
     style="fill:#adde9b;fill-opacity:1;stroke:#1d4660;stroke-width:10.6455;stroke-opacity:1" /></svg>
