<?xml version="1.0" encoding="UTF-8" standalone="no"?>
<svg
   id="Ebene_1"
   data-name="Ebene 1"
   viewBox="0 0 248.88 278.36"
   version="1.1"
   sodipodi:docname="Muffin_Dough.svg"
   inkscape:version="1.4.2 (1:1.4.2+202505120738+ebf0e940d0)"
   xmlns:inkscape="http://www.inkscape.org/namespaces/inkscape"
   xmlns:sodipodi="http://sodipodi.sourceforge.net/DTD/sodipodi-0.dtd"
   xmlns="http://www.w3.org/2000/svg"
   xmlns:svg="http://www.w3.org/2000/svg">
  <sodipodi:namedview
     id="namedview23"
     pagecolor="#ffffff"
     bordercolor="#000000"
     borderopacity="0.25"
     inkscape:showpageshadow="2"
     inkscape:pageopacity="0.0"
     inkscape:pagecheckerboard="0"
     inkscape:deskcolor="#d1d1d1"
     inkscape:zoom="6.0864633"
     inkscape:cx="50.439801"
     inkscape:cy="181.55043"
     inkscape:window-width="3440"
     inkscape:window-height="1403"
     inkscape:window-x="0"
     inkscape:window-y="0"
     inkscape:window-maximized="1"
     inkscape:current-layer="Ebene_1" />
  <defs
     id="defs1">
    <style
       id="style1">.cls-1{fill:#fff;}.cls-2{fill:#73a44d;}.cls-3{fill:#1d4660;}</style>
  </defs>
  <rect
     class="cls-2"
     x="189.35"
     y="192.26"
     width="11.77"
     height="11.7"
     id="rect1" />
  <polygon
     class="cls-2"
     points="189.29 239.25 189.29 204 177.6 204 177.6 215.66 153.96 215.66 153.96 204.04 142.17 204.04 142.17 192.26 130.35 192.26 130.35 180.44 118.7 180.44 118.7 192.22 106.88 192.22 106.88 203.96 83.27 203.96 83.27 192.22 71.47 192.22 71.47 180.41 48.04 180.41 48.04 203.89 59.74 203.89 59.74 239.26 71.58 239.26 71.58 251.09 177.47 251.09 177.47 239.25 189.29 239.25"
     id="polygon2" />
  <rect
     class="cls-3"
     x="36.278538"
     y="180.3486"
     width="11.87"
     height="23.700001"
     id="rect5" />
  <rect
     class="cls-3"
     x="70.721855"
     y="168.5943"
     width="95.00531"
     height="37.864487"
     id="rect8"
     style="fill:#73a44d;fill-opacity:1;stroke-width:2.92592" />
  <rect
     class="cls-3"
     x="147.81346"
     y="179.4342"
     width="53.437653"
     height="36.714394"
     id="rect9-9"
     style="fill:#73a44d;fill-opacity:1;stroke-width:2.1608" />
  <rect
     class="cls-3"
     x="47.89"
     y="203.88"
     width="11.87"
     height="35.49"
     id="rect11" />
  <rect
     class="cls-3"
     x="59.72"
     y="239.26"
     width="11.87"
     height="11.87"
     id="rect12" />
  <rect
     class="cls-3"
     x="71.49"
     y="251.09"
     width="106.08"
     height="11.87"
     id="rect13" />
  <rect
     class="cls-3"
     x="177.49"
     y="239.24"
     width="11.87"
     height="11.87"
     id="rect14" />
  <rect
     class="cls-3"
     x="189.31"
     y="203.95"
     width="11.87"
     height="35.43"
     id="rect15" />
  <polygon
     class="cls-3"
     points="213,180.31 213,204.03 201.13,204.03 201.13,192.25 189.31,192.25 189.31,180.31 "
     id="polygon15"
     transform="translate(-0.32859805,-11.665231)" />
  <rect
     class="cls-3"
     x="165.79951"
     y="168.63"
     width="23.65"
     height="11.87"
     id="rect18" />
  <rect
     class="cls-3"
     x="71.376648"
     y="156.72095"
     width="94.348114"
     height="11.87"
     id="rect20"
     style="stroke-width:2.81929" />
  <rect
     class="cls-3"
     x="48.022533"
     y="168.6136"
     width="23.610001"
     height="11.87"
     id="rect23" />
  <rect
     class="cls-3"
     x="200.73438"
     y="192.15625"
     width="11.87"
     height="11.87"
     id="rect14-2"
     style="fill:#1d4660" />
</svg>
