<?xml version="1.0" encoding="UTF-8" standalone="no"?>
<!-- Created with Inkscape (http://www.inkscape.org/) -->

<svg
   xmlns:dc="http://purl.org/dc/elements/1.1/"
   xmlns:cc="http://creativecommons.org/ns#"
   xmlns:rdf="http://www.w3.org/1999/02/22-rdf-syntax-ns#"
   xmlns:svg="http://www.w3.org/2000/svg"
   xmlns="http://www.w3.org/2000/svg"
   xmlns:xlink="http://www.w3.org/1999/xlink"
   xmlns:sodipodi="http://sodipodi.sourceforge.net/DTD/sodipodi-0.dtd"
   xmlns:inkscape="http://www.inkscape.org/namespaces/inkscape"
   width="256"
   height="256"
   viewBox="0 0 256 256"
   id="svg4855"
   version="1.1"
   inkscape:version="0.91 r13725"
   sodipodi:docname="QgisModelBaker_GenerateProject.svg"
   inkscape:export-filename="R:\4_Hochbau\47_Geoinformation\471_Koordination\471-6_QgisModelBaker\Icons\generate_project.png"
   inkscape:export-xdpi="90"
   inkscape:export-ydpi="90">
  <defs
     id="defs4857">
    <linearGradient
       id="j"
       gradientUnits="userSpaceOnUse"
       x1="61.441303"
       x2="61.206081"
       y1="161.2032"
       y2="273.04837">
      <stop
         offset="0"
         stop-color="#129300"
         id="stop5494"
         style="stop-color:#c90000;stop-opacity:1" />
      <stop
         offset="1"
         stop-color="#e4f363"
         id="stop5496" />
    </linearGradient>
    <filter
       style="color-interpolation-filters:sRGB"
       id="g">
      <feFlood
         flood-opacity=".419"
         result="flood"
         id="feFlood5469" />
      <feComposite
         in="flood"
         in2="SourceGraphic"
         operator="in"
         result="composite1"
         id="feComposite5471" />
      <feGaussianBlur
         result="blur"
         stdDeviation="1.8"
         id="feGaussianBlur5473" />
      <feOffset
         dx="3"
         dy="3"
         result="offset"
         id="feOffset5475" />
      <feComposite
         in="SourceGraphic"
         in2="offset"
         operator="over"
         result="composite2"
         id="feComposite5477" />
    </filter>
    <clipPath
       id="i">
      <path
         inkscape:connector-curvature="0"
         d="m 41.45607,282.45609 170.30554,0 0,157.49495 -170.30554,0 z"
         id="path5491" />
    </clipPath>
    <linearGradient
       gradientTransform="translate(-1.8736239,799.78099)"
       id="b"
       gradientUnits="userSpaceOnUse"
       x1="190.52345"
       x2="180.14067"
       y1="30.799114"
       y2="41.59544">
      <stop
         offset="0"
         stop-color="#afafaf"
         id="stop5440" />
      <stop
         offset="1"
         stop-color="#fff"
         id="stop5442" />
    </linearGradient>
    <filter
       style="color-interpolation-filters:sRGB"
       id="f">
      <feFlood
         flood-opacity=".77536232"
         result="flood"
         id="feFlood5458" />
      <feComposite
         in="flood"
         in2="SourceGraphic"
         operator="in"
         result="composite1"
         id="feComposite5460" />
      <feGaussianBlur
         result="blur"
         stdDeviation="4"
         id="feGaussianBlur5462" />
      <feOffset
         dx="1.8"
         dy="1.8"
         result="offset"
         id="feOffset5464" />
      <feComposite
         in="SourceGraphic"
         in2="offset"
         operator="over"
         result="composite2"
         id="feComposite5466" />
    </filter>
    <linearGradient
       gradientTransform="translate(-1.8736239,799.78099)"
       id="c"
       gradientUnits="userSpaceOnUse"
       x1="120.7066"
       x2="123.01035"
       xlink:href="#a"
       y1="244.55363"
       y2="121.55801" />
    <linearGradient
       id="a">
      <stop
         offset="0"
         stop-color="#f5f5f5"
         id="stop5435" />
      <stop
         offset="1"
         stop-color="#fff"
         id="stop5437" />
    </linearGradient>
    <linearGradient
       gradientTransform="translate(-1.8736239,799.78099)"
       id="d"
       gradientUnits="userSpaceOnUse"
       x1="-19.831818"
       x2="384.75043"
       xlink:href="#a"
       y1="221.75748"
       y2="222.76762" />
    <filter
       style="color-interpolation-filters:sRGB"
       id="e">
      <feFlood
         flood-opacity=".85144928"
         result="flood"
         id="feFlood5447" />
      <feComposite
         in="flood"
         in2="SourceGraphic"
         operator="in"
         result="composite1"
         id="feComposite5449" />
      <feGaussianBlur
         result="blur"
         stdDeviation="4"
         id="feGaussianBlur5451" />
      <feOffset
         dx="1.8"
         dy="1.8"
         result="offset"
         id="feOffset5453" />
      <feComposite
         in="SourceGraphic"
         in2="offset"
         operator="over"
         result="composite2"
         id="feComposite5455" />
    </filter>
    <clipPath
       clipPathUnits="userSpaceOnUse"
       id="clipPath4336">
      <path
         style="display:inline;fill:#ffffff;fill-opacity:1;fill-rule:evenodd;stroke:#000000;stroke-width:2.4000001;stroke-linecap:butt;stroke-linejoin:round;stroke-miterlimit:4;stroke-dasharray:none;stroke-opacity:1"
         d="m -733.78642,495.66591 0,-525.843088 395.3276,0 166.51027,119.5098 0,406.333288 z"
         id="path4338"
         inkscape:connector-curvature="0" />
    </clipPath>
    <clipPath
       clipPathUnits="userSpaceOnUse"
       id="clipPath5025">
      <rect
         style="display:inline;fill:#ffffff;fill-opacity:0.62057878;stroke:#000000;stroke-width:3.5999999;stroke-linecap:round;stroke-linejoin:round;stroke-miterlimit:4;stroke-dasharray:none;stroke-opacity:1"
         id="rect5027"
         width="217.60001"
         height="177.60001"
         x="19.199997"
         y="66.015221" />
    </clipPath>
  </defs>
  <sodipodi:namedview
     id="base"
     pagecolor="#ffffff"
     bordercolor="#666666"
     borderopacity="1.0"
     inkscape:pageopacity="0.0"
     inkscape:pageshadow="2"
     inkscape:zoom="1.4142136"
     inkscape:cx="49.108594"
     inkscape:cy="79.949883"
     inkscape:document-units="px"
     inkscape:current-layer="layer8"
     showgrid="false"
     units="px"
     inkscape:window-width="1680"
     inkscape:window-height="987"
     inkscape:window-x="-8"
     inkscape:window-y="-8"
     inkscape:window-maximized="1" />
  <metadata
     id="metadata4860">
    <rdf:RDF>
      <cc:Work
         rdf:about="">
        <dc:format>image/svg+xml</dc:format>
        <dc:type
           rdf:resource="http://purl.org/dc/dcmitype/StillImage" />
        <dc:title />
      </cc:Work>
    </rdf:RDF>
  </metadata>
  <g
     inkscape:groupmode="layer"
     id="layer8"
     inkscape:label="project"
     style="display:inline"
     sodipodi:insensitive="true">
    <rect
       style="fill:#ffffff;fill-opacity:1;stroke:#000000;stroke-width:4;stroke-linecap:round;stroke-linejoin:miter;stroke-miterlimit:4;stroke-dasharray:none;stroke-opacity:1"
       id="rect5626"
       width="217.60001"
       height="177.60001"
       x="19.199997"
       y="66.015221" />
    <rect
       style="fill:#75a32b;fill-opacity:1;stroke:none;stroke-width:2.4000001;stroke-linecap:round;stroke-linejoin:round;stroke-miterlimit:4;stroke-dasharray:none;stroke-opacity:1"
       id="rect5626-2"
       width="217.60001"
       height="47.599998"
       x="19.186325"
       y="18.478613" />
    <path
       style="fill:#ee7913;fill-opacity:1;fill-rule:evenodd;stroke:none;stroke-width:1px;stroke-linecap:butt;stroke-linejoin:miter;stroke-opacity:1"
       d="m 19,65.750005 0,-47.499999 47.315293,0 z"
       id="path5673"
       inkscape:connector-curvature="0" />
    <rect
       style="fill:#f0e64a;fill-opacity:1;stroke:none;stroke-width:2.4000001;stroke-linecap:round;stroke-linejoin:round;stroke-miterlimit:4;stroke-dasharray:none;stroke-opacity:1"
       id="rect5696"
       width="30"
       height="69.296463"
       x="84.171783"
       y="24.74222"
       transform="matrix(1,0,-0.70710678,0.70710678,0,0)" />
    <rect
       style="display:inline;fill:none;fill-opacity:1;stroke:#000000;stroke-width:4;stroke-linecap:round;stroke-linejoin:miter;stroke-miterlimit:4;stroke-dasharray:none;stroke-opacity:1"
       id="rect5626-2-6"
       width="217.60001"
       height="47.599998"
       x="19.199997"
       y="18.478613" />
  </g>
  <g
     inkscape:groupmode="layer"
     id="layer5"
     inkscape:label="data model"
     style="display:inline"
     sodipodi:insensitive="true">
    <rect
       style="display:inline;fill:#ffffff;fill-opacity:1;stroke:#415a75;stroke-width:7.5;stroke-linecap:butt;stroke-linejoin:miter;stroke-miterlimit:4;stroke-dasharray:none;stroke-opacity:1"
       id="rect4792-9"
       width="60.35955"
       height="42.305954"
       x="134.80853"
       y="92.669739" />
    <rect
       style="fill:#415a75;fill-opacity:1;stroke:none;stroke-width:2;stroke-linecap:butt;stroke-linejoin:round;stroke-miterlimit:4;stroke-dasharray:none;stroke-opacity:1"
       id="rect6294-5"
       width="61.504704"
       height="17.188309"
       x="134.23596"
       y="90.59729" />
    <path
       style="display:inline;fill:none;fill-rule:evenodd;stroke:#415a75;stroke-width:7.5;stroke-linecap:butt;stroke-linejoin:miter;stroke-miterlimit:4;stroke-dasharray:none;stroke-opacity:1"
       d="m 108.71363,195.44836 -30.933692,0 0,-45.82772"
       id="path6936"
       inkscape:connector-curvature="0" />
    <rect
       style="display:inline;fill:#ffffff;fill-opacity:1;stroke:#415a75;stroke-width:7.5;stroke-linecap:butt;stroke-linejoin:miter;stroke-miterlimit:4;stroke-dasharray:none;stroke-opacity:1"
       id="rect4792"
       width="60.35955"
       height="42.305954"
       x="47.122662"
       y="116.16444" />
    <rect
       style="fill:#415a75;fill-opacity:1;stroke:none;stroke-width:2;stroke-linecap:butt;stroke-linejoin:miter;stroke-miterlimit:4;stroke-dasharray:none;stroke-opacity:1"
       id="rect6294"
       width="61.504704"
       height="17.188309"
       x="46.550087"
       y="114.092" />
    <rect
       style="display:inline;fill:#ffffff;fill-opacity:1;stroke:#415a75;stroke-width:7.5;stroke-linecap:butt;stroke-linejoin:miter;stroke-miterlimit:4;stroke-dasharray:none;stroke-opacity:1"
       id="rect4792-7"
       width="60.35955"
       height="42.305954"
       x="110.19599"
       y="173.72249" />
    <rect
       style="fill:#415a75;fill-opacity:1;stroke:none;stroke-width:2;stroke-linecap:butt;stroke-linejoin:miter;stroke-miterlimit:4;stroke-dasharray:none;stroke-opacity:1"
       id="rect6294-9"
       width="61.504704"
       height="17.188309"
       x="109.62342"
       y="171.65004" />
  </g>
  <g
     inkscape:groupmode="layer"
     id="layer7"
     inkscape:label="new"
     style="display:inline"
     sodipodi:insensitive="true">
    <rect
       style="display:inline;fill:none;stroke:#ffffff;stroke-width:14.71627617;stroke-miterlimit:4;stroke-dasharray:none;stroke-opacity:1"
       id="rect6315-3-6"
       height="96"
       rx="20.46936"
       ry="20.12958"
       width="96"
       x="159"
       y="159"
       clip-path="url(#clipPath5025)"
       transform="matrix(0.94339878,0,0,0.95932306,8.6531694,6.4095211)" />
    <rect
       style="fill:#c4a000"
       id="rect6315-3"
       height="96"
       rx="19.31077"
       ry="19.31077"
       width="96"
       x="159"
       y="159" />
    <path
       style="opacity:0.3;fill:#fcffff;fill-rule:evenodd"
       inkscape:connector-curvature="0"
       id="path6317-8"
       d="m 168.6,207 76.8,0 0,-19.2 c 0,-19.2 -4.8,-19.2 -38.4,-19.2 -33.6,0 -38.4,0 -38.4,19.2 l 0,19.2 z" />
    <path
       style="fill:#ffffff;stroke:#ffffff;stroke-width:2.21379948"
       inkscape:connector-curvature="0"
       id="path6319"
       d="m 204.7716,210.92068 0,3.38792 c 0,4.63611 -0.71214,7.84572 -2.84855,11.9469 -3.20462,6.95416 -3.56069,7.84572 -3.56069,10.5204 0,5.17104 3.91676,9.45053 8.54565,9.45053 4.80692,0 8.54564,-4.27949 8.54564,-9.62884 0,-1.78312 -0.5341,-4.10118 -1.78034,-6.41923 -4.09479,-8.73728 -4.45086,-10.16378 -4.45086,-15.86976 l 0,-3.38792 2.84855,1.78312 c 3.73872,2.13974 6.58727,4.6361 9.07974,8.20234 5.87513,8.02404 7.83351,9.62884 12.64043,9.62884 4.45086,0 8.01154,-3.38792 8.01154,-7.84572 0,-5.52767 -4.62889,-9.62884 -11.57222,-10.16378 -8.72368,-0.53493 -10.32598,-0.89156 -15.84505,-3.92286 l -2.84854,-1.6048 2.84854,-1.60481 c 4.09479,-2.31806 7.12137,-3.38793 11.75026,-3.56624 7.12137,-0.71325 7.65547,-0.71325 9.79188,-1.60481 3.56069,-1.78311 5.87513,-4.99273 5.87513,-8.73728 0,-4.63611 -3.73871,-8.20234 -8.3676,-8.20234 -3.91676,0 -7.12137,1.96143 -9.96992,6.24091 -4.98496,7.4891 -6.05316,8.55897 -11.39419,11.76859 l -2.84855,1.78311 0,-3.38792 c 0,-4.4578 0.71214,-7.84572 2.84855,-11.9469 3.38265,-7.13247 3.56068,-7.84572 3.56068,-10.34209 0,-5.34935 -3.91675,-9.62884 -8.72367,-9.62884 -4.62889,0 -8.54565,4.27949 -8.54565,9.45053 0,1.96143 0.53411,4.27949 1.78035,6.59754 4.27282,8.9156 4.62889,10.16378 4.62889,15.86976 l 0,3.38792 -2.84855,-1.78311 c -4.09479,-2.31806 -6.40923,-4.63611 -9.07975,-8.38066 -3.56068,-5.34936 -3.56068,-5.34936 -4.98495,-6.77585 -1.95838,-1.78312 -4.80693,-2.85299 -7.12137,-2.85299 -4.80693,0 -8.54564,3.74455 -8.54564,8.20234 0,5.52767 4.45085,9.45053 11.39418,9.98547 9.07975,0.53493 10.50402,0.89156 16.02308,3.92286 l 2.84855,1.60481 -2.84855,1.78311 c -3.73871,2.13975 -7.2994,3.20962 -11.75025,3.56624 -6.94334,0.35663 -7.47744,0.53494 -9.79189,1.4265 -3.56068,1.6048 -5.87512,4.99273 -5.87512,8.73728 0,4.4578 3.73871,8.20234 8.3676,8.20234 3.91676,0 7.29941,-2.13974 9.96992,-6.24091 4.80692,-7.13248 6.2312,-8.73728 11.39419,-11.76858 z" />
  </g>
</svg>
